<mxfile host="Electron" modified="2024-04-10T17:49:53.860Z" agent="Mozilla/5.0 (Windows NT 10.0; Win64; x64) AppleWebKit/537.36 (KHTML, like Gecko) draw.io/24.1.0 Chrome/120.0.6099.109 Electron/28.1.0 Safari/537.36" etag="H4kCwMjvlH_qUsBb8t2h" version="24.1.0" type="device">
  <diagram name="Página-1" id="4TQZ6UUWr82am-WhzIUs">
    <mxGraphModel dx="1050" dy="621" grid="1" gridSize="10" guides="1" tooltips="1" connect="1" arrows="1" fold="1" page="1" pageScale="1" pageWidth="1654" pageHeight="2336" math="0" shadow="0">
      <root>
        <mxCell id="0" />
        <mxCell id="1" parent="0" />
        <mxCell id="dSocFvj9sSlPv9K6rztm-3" value="Paciente" style="shape=umlActor;verticalLabelPosition=bottom;verticalAlign=top;html=1;outlineConnect=0;" vertex="1" parent="1">
          <mxGeometry x="190" y="140" width="30" height="60" as="geometry" />
        </mxCell>
        <mxCell id="dSocFvj9sSlPv9K6rztm-6" value="Doctor" style="shape=umlActor;verticalLabelPosition=bottom;verticalAlign=top;html=1;outlineConnect=0;" vertex="1" parent="1">
          <mxGeometry x="750" y="460" width="30" height="60" as="geometry" />
        </mxCell>
        <mxCell id="dSocFvj9sSlPv9K6rztm-7" value="Enfermero" style="shape=umlActor;verticalLabelPosition=bottom;verticalAlign=top;html=1;outlineConnect=0;" vertex="1" parent="1">
          <mxGeometry x="750" y="150" width="30" height="60" as="geometry" />
        </mxCell>
        <mxCell id="dSocFvj9sSlPv9K6rztm-11" value="Solicita atención médica" style="ellipse;whiteSpace=wrap;html=1;" vertex="1" parent="1">
          <mxGeometry x="320" y="130" width="100" height="50" as="geometry" />
        </mxCell>
        <mxCell id="dSocFvj9sSlPv9K6rztm-13" value="" style="endArrow=none;html=1;rounded=0;exitX=0;exitY=0.5;exitDx=0;exitDy=0;" edge="1" parent="1" source="dSocFvj9sSlPv9K6rztm-11">
          <mxGeometry width="50" height="50" relative="1" as="geometry">
            <mxPoint x="510" y="350" as="sourcePoint" />
            <mxPoint x="230" y="180" as="targetPoint" />
          </mxGeometry>
        </mxCell>
        <mxCell id="dSocFvj9sSlPv9K6rztm-16" style="edgeStyle=orthogonalEdgeStyle;rounded=0;orthogonalLoop=1;jettySize=auto;html=1;exitX=0;exitY=0.5;exitDx=0;exitDy=0;entryX=1;entryY=0.5;entryDx=0;entryDy=0;startArrow=none;startFill=0;strokeColor=default;endArrow=none;endFill=0;" edge="1" parent="1" source="dSocFvj9sSlPv9K6rztm-14" target="dSocFvj9sSlPv9K6rztm-11">
          <mxGeometry relative="1" as="geometry" />
        </mxCell>
        <mxCell id="dSocFvj9sSlPv9K6rztm-19" style="edgeStyle=orthogonalEdgeStyle;rounded=0;orthogonalLoop=1;jettySize=auto;html=1;exitX=0.5;exitY=1;exitDx=0;exitDy=0;entryX=0.5;entryY=0;entryDx=0;entryDy=0;strokeColor=default;align=center;verticalAlign=middle;fontFamily=Helvetica;fontSize=11;fontColor=default;labelBackgroundColor=default;startArrow=none;startFill=0;endArrow=none;endFill=0;" edge="1" parent="1" source="dSocFvj9sSlPv9K6rztm-14" target="dSocFvj9sSlPv9K6rztm-17">
          <mxGeometry relative="1" as="geometry" />
        </mxCell>
        <mxCell id="dSocFvj9sSlPv9K6rztm-14" value="Atención médica y revisión sintomatología" style="ellipse;whiteSpace=wrap;html=1;" vertex="1" parent="1">
          <mxGeometry x="560" y="125" width="100" height="60" as="geometry" />
        </mxCell>
        <mxCell id="dSocFvj9sSlPv9K6rztm-15" value="" style="endArrow=none;html=1;rounded=0;exitX=1;exitY=0.5;exitDx=0;exitDy=0;" edge="1" parent="1" source="dSocFvj9sSlPv9K6rztm-14">
          <mxGeometry width="50" height="50" relative="1" as="geometry">
            <mxPoint x="510" y="350" as="sourcePoint" />
            <mxPoint x="740" y="190" as="targetPoint" />
          </mxGeometry>
        </mxCell>
        <mxCell id="dSocFvj9sSlPv9K6rztm-17" value="Realizar un informe" style="ellipse;whiteSpace=wrap;html=1;fontFamily=Helvetica;fontSize=11;fontColor=default;labelBackgroundColor=default;" vertex="1" parent="1">
          <mxGeometry x="550" y="230" width="120" height="60" as="geometry" />
        </mxCell>
        <mxCell id="dSocFvj9sSlPv9K6rztm-25" style="edgeStyle=orthogonalEdgeStyle;rounded=0;orthogonalLoop=1;jettySize=auto;html=1;exitX=0.5;exitY=0;exitDx=0;exitDy=0;entryX=0.5;entryY=1;entryDx=0;entryDy=0;strokeColor=default;align=center;verticalAlign=middle;fontFamily=Helvetica;fontSize=11;fontColor=default;labelBackgroundColor=default;startArrow=none;startFill=0;endArrow=none;endFill=0;" edge="1" parent="1" source="dSocFvj9sSlPv9K6rztm-18" target="dSocFvj9sSlPv9K6rztm-17">
          <mxGeometry relative="1" as="geometry" />
        </mxCell>
        <mxCell id="dSocFvj9sSlPv9K6rztm-27" style="edgeStyle=orthogonalEdgeStyle;rounded=0;orthogonalLoop=1;jettySize=auto;html=1;exitX=0.5;exitY=1;exitDx=0;exitDy=0;entryX=0.5;entryY=0;entryDx=0;entryDy=0;strokeColor=default;align=center;verticalAlign=middle;fontFamily=Helvetica;fontSize=11;fontColor=default;labelBackgroundColor=default;startArrow=none;startFill=0;endArrow=none;endFill=0;" edge="1" parent="1" source="dSocFvj9sSlPv9K6rztm-18" target="dSocFvj9sSlPv9K6rztm-26">
          <mxGeometry relative="1" as="geometry" />
        </mxCell>
        <mxCell id="dSocFvj9sSlPv9K6rztm-18" value="Envía a un especialista" style="ellipse;whiteSpace=wrap;html=1;fontFamily=Helvetica;fontSize=11;fontColor=default;labelBackgroundColor=default;" vertex="1" parent="1">
          <mxGeometry x="550" y="320" width="120" height="60" as="geometry" />
        </mxCell>
        <mxCell id="dSocFvj9sSlPv9K6rztm-24" value="" style="endArrow=none;html=1;rounded=0;entryX=0.933;entryY=0.736;entryDx=0;entryDy=0;entryPerimeter=0;" edge="1" parent="1" target="dSocFvj9sSlPv9K6rztm-26">
          <mxGeometry width="50" height="50" relative="1" as="geometry">
            <mxPoint x="740" y="490" as="sourcePoint" />
            <mxPoint x="400" y="370" as="targetPoint" />
          </mxGeometry>
        </mxCell>
        <mxCell id="dSocFvj9sSlPv9K6rztm-26" value="Diagnostica al paciente" style="ellipse;whiteSpace=wrap;html=1;fontFamily=Helvetica;fontSize=11;fontColor=default;labelBackgroundColor=default;" vertex="1" parent="1">
          <mxGeometry x="550" y="400" width="120" height="50" as="geometry" />
        </mxCell>
        <mxCell id="dSocFvj9sSlPv9K6rztm-29" style="edgeStyle=orthogonalEdgeStyle;rounded=0;orthogonalLoop=1;jettySize=auto;html=1;exitX=1;exitY=0.5;exitDx=0;exitDy=0;entryX=0;entryY=0.5;entryDx=0;entryDy=0;strokeColor=default;align=center;verticalAlign=middle;fontFamily=Helvetica;fontSize=11;fontColor=default;labelBackgroundColor=default;startArrow=classicThin;startFill=1;endArrow=none;endFill=0;dashed=1;" edge="1" parent="1" source="dSocFvj9sSlPv9K6rztm-28" target="dSocFvj9sSlPv9K6rztm-26">
          <mxGeometry relative="1" as="geometry" />
        </mxCell>
        <mxCell id="dSocFvj9sSlPv9K6rztm-28" value="Establece tratamiento" style="ellipse;whiteSpace=wrap;html=1;fontFamily=Helvetica;fontSize=11;fontColor=default;labelBackgroundColor=default;" vertex="1" parent="1">
          <mxGeometry x="320" y="400" width="120" height="50" as="geometry" />
        </mxCell>
        <mxCell id="dSocFvj9sSlPv9K6rztm-30" value="Extend" style="text;html=1;align=center;verticalAlign=middle;whiteSpace=wrap;rounded=0;fontFamily=Helvetica;fontSize=11;fontColor=default;labelBackgroundColor=default;" vertex="1" parent="1">
          <mxGeometry x="460" y="400" width="60" height="30" as="geometry" />
        </mxCell>
        <mxCell id="dSocFvj9sSlPv9K6rztm-33" style="edgeStyle=orthogonalEdgeStyle;rounded=0;orthogonalLoop=1;jettySize=auto;html=1;exitX=1;exitY=0.5;exitDx=0;exitDy=0;entryX=0;entryY=0.5;entryDx=0;entryDy=0;strokeColor=default;align=center;verticalAlign=middle;fontFamily=Helvetica;fontSize=11;fontColor=default;labelBackgroundColor=default;startArrow=classicThin;startFill=1;endArrow=none;endFill=0;dashed=1;" edge="1" parent="1" source="dSocFvj9sSlPv9K6rztm-32" target="dSocFvj9sSlPv9K6rztm-17">
          <mxGeometry relative="1" as="geometry" />
        </mxCell>
        <mxCell id="dSocFvj9sSlPv9K6rztm-32" value="Enviar a jefa&amp;nbsp;&lt;div&gt;de departamento&lt;/div&gt;" style="ellipse;whiteSpace=wrap;html=1;fontFamily=Helvetica;fontSize=11;fontColor=default;labelBackgroundColor=default;" vertex="1" parent="1">
          <mxGeometry x="320" y="237.5" width="110" height="45" as="geometry" />
        </mxCell>
        <mxCell id="dSocFvj9sSlPv9K6rztm-34" value="Include" style="text;html=1;align=center;verticalAlign=middle;whiteSpace=wrap;rounded=0;fontFamily=Helvetica;fontSize=11;fontColor=default;labelBackgroundColor=default;" vertex="1" parent="1">
          <mxGeometry x="460" y="237.5" width="60" height="30" as="geometry" />
        </mxCell>
        <mxCell id="dSocFvj9sSlPv9K6rztm-40" value="Administrador" style="shape=umlActor;verticalLabelPosition=bottom;verticalAlign=top;html=1;outlineConnect=0;fontFamily=Helvetica;fontSize=11;fontColor=default;labelBackgroundColor=default;" vertex="1" parent="1">
          <mxGeometry x="135" y="700" width="30" height="60" as="geometry" />
        </mxCell>
        <mxCell id="dSocFvj9sSlPv9K6rztm-73" style="edgeStyle=orthogonalEdgeStyle;rounded=0;orthogonalLoop=1;jettySize=auto;html=1;exitX=1;exitY=0.5;exitDx=0;exitDy=0;entryX=0;entryY=0.5;entryDx=0;entryDy=0;strokeColor=default;align=center;verticalAlign=middle;fontFamily=Helvetica;fontSize=11;fontColor=default;labelBackgroundColor=default;startArrow=none;startFill=0;endArrow=classicThin;endFill=1;dashed=1;" edge="1" parent="1" source="dSocFvj9sSlPv9K6rztm-41" target="dSocFvj9sSlPv9K6rztm-69">
          <mxGeometry relative="1" as="geometry" />
        </mxCell>
        <mxCell id="dSocFvj9sSlPv9K6rztm-41" value="Registrar GPS&lt;div&gt;(camiones)&lt;/div&gt;" style="ellipse;whiteSpace=wrap;html=1;fontFamily=Helvetica;fontSize=11;fontColor=default;labelBackgroundColor=default;" vertex="1" parent="1">
          <mxGeometry x="255" y="690" width="120" height="40" as="geometry" />
        </mxCell>
        <mxCell id="dSocFvj9sSlPv9K6rztm-42" value="Programar rutas" style="ellipse;whiteSpace=wrap;html=1;fontFamily=Helvetica;fontSize=11;fontColor=default;labelBackgroundColor=default;" vertex="1" parent="1">
          <mxGeometry x="255" y="750" width="120" height="40" as="geometry" />
        </mxCell>
        <mxCell id="dSocFvj9sSlPv9K6rztm-44" value="" style="endArrow=none;html=1;rounded=0;exitX=0;exitY=0.5;exitDx=0;exitDy=0;" edge="1" parent="1" source="dSocFvj9sSlPv9K6rztm-41">
          <mxGeometry width="50" height="50" relative="1" as="geometry">
            <mxPoint x="238" y="751.5" as="sourcePoint" />
            <mxPoint x="165" y="730" as="targetPoint" />
          </mxGeometry>
        </mxCell>
        <mxCell id="dSocFvj9sSlPv9K6rztm-45" value="" style="endArrow=none;html=1;rounded=0;exitX=0;exitY=0.5;exitDx=0;exitDy=0;" edge="1" parent="1" source="dSocFvj9sSlPv9K6rztm-42">
          <mxGeometry width="50" height="50" relative="1" as="geometry">
            <mxPoint x="265" y="720" as="sourcePoint" />
            <mxPoint x="165" y="740" as="targetPoint" />
          </mxGeometry>
        </mxCell>
        <mxCell id="dSocFvj9sSlPv9K6rztm-46" value="Fijar horarios" style="ellipse;whiteSpace=wrap;html=1;fontFamily=Helvetica;fontSize=11;fontColor=default;labelBackgroundColor=default;" vertex="1" parent="1">
          <mxGeometry x="465" y="780" width="120" height="40" as="geometry" />
        </mxCell>
        <mxCell id="dSocFvj9sSlPv9K6rztm-49" value="Include" style="text;html=1;align=center;verticalAlign=middle;whiteSpace=wrap;rounded=0;fontFamily=Helvetica;fontSize=11;fontColor=default;labelBackgroundColor=default;" vertex="1" parent="1">
          <mxGeometry x="395" y="750" width="60" height="30" as="geometry" />
        </mxCell>
        <mxCell id="dSocFvj9sSlPv9K6rztm-52" value="" style="endArrow=classic;html=1;rounded=0;strokeColor=default;align=center;verticalAlign=middle;fontFamily=Helvetica;fontSize=11;fontColor=default;labelBackgroundColor=default;edgeStyle=orthogonalEdgeStyle;exitX=1;exitY=0.5;exitDx=0;exitDy=0;entryX=0;entryY=1;entryDx=0;entryDy=0;dashed=1;" edge="1" parent="1" source="dSocFvj9sSlPv9K6rztm-42" target="dSocFvj9sSlPv9K6rztm-46">
          <mxGeometry width="50" height="50" relative="1" as="geometry">
            <mxPoint x="415" y="730" as="sourcePoint" />
            <mxPoint x="465" y="760" as="targetPoint" />
            <Array as="points">
              <mxPoint x="455" y="770" />
              <mxPoint x="455" y="814" />
            </Array>
          </mxGeometry>
        </mxCell>
        <mxCell id="dSocFvj9sSlPv9K6rztm-54" value="Enviar posición" style="ellipse;whiteSpace=wrap;html=1;fontFamily=Helvetica;fontSize=11;fontColor=default;labelBackgroundColor=default;" vertex="1" parent="1">
          <mxGeometry x="670" y="750" width="120" height="40" as="geometry" />
        </mxCell>
        <mxCell id="dSocFvj9sSlPv9K6rztm-56" value="GPS" style="shape=umlActor;verticalLabelPosition=bottom;verticalAlign=top;html=1;outlineConnect=0;fontFamily=Helvetica;fontSize=11;fontColor=default;labelBackgroundColor=default;" vertex="1" parent="1">
          <mxGeometry x="815" y="670" width="30" height="60" as="geometry" />
        </mxCell>
        <mxCell id="dSocFvj9sSlPv9K6rztm-61" value="" style="endArrow=none;html=1;rounded=0;entryX=1;entryY=0;entryDx=0;entryDy=0;" edge="1" parent="1" target="dSocFvj9sSlPv9K6rztm-54">
          <mxGeometry width="50" height="50" relative="1" as="geometry">
            <mxPoint x="807" y="720" as="sourcePoint" />
            <mxPoint x="717" y="720" as="targetPoint" />
          </mxGeometry>
        </mxCell>
        <mxCell id="dSocFvj9sSlPv9K6rztm-62" value="Consultar mapa" style="ellipse;whiteSpace=wrap;html=1;fontFamily=Helvetica;fontSize=11;fontColor=default;labelBackgroundColor=default;" vertex="1" parent="1">
          <mxGeometry x="255" y="810" width="120" height="40" as="geometry" />
        </mxCell>
        <mxCell id="dSocFvj9sSlPv9K6rztm-63" value="" style="endArrow=none;html=1;rounded=0;exitX=0;exitY=0.5;exitDx=0;exitDy=0;" edge="1" parent="1" source="dSocFvj9sSlPv9K6rztm-62">
          <mxGeometry width="50" height="50" relative="1" as="geometry">
            <mxPoint x="265" y="774" as="sourcePoint" />
            <mxPoint x="165" y="750" as="targetPoint" />
          </mxGeometry>
        </mxCell>
        <mxCell id="dSocFvj9sSlPv9K6rztm-71" style="edgeStyle=orthogonalEdgeStyle;rounded=0;orthogonalLoop=1;jettySize=auto;html=1;exitX=0.5;exitY=0;exitDx=0;exitDy=0;entryX=0.5;entryY=1;entryDx=0;entryDy=0;strokeColor=default;align=center;verticalAlign=middle;fontFamily=Helvetica;fontSize=11;fontColor=default;labelBackgroundColor=default;startArrow=none;startFill=0;endArrow=classicThin;endFill=1;dashed=1;" edge="1" parent="1" source="dSocFvj9sSlPv9K6rztm-66" target="dSocFvj9sSlPv9K6rztm-62">
          <mxGeometry relative="1" as="geometry" />
        </mxCell>
        <mxCell id="dSocFvj9sSlPv9K6rztm-66" value="Modificar ruta" style="ellipse;whiteSpace=wrap;html=1;fontFamily=Helvetica;fontSize=11;fontColor=default;labelBackgroundColor=default;" vertex="1" parent="1">
          <mxGeometry x="145" y="900" width="120" height="40" as="geometry" />
        </mxCell>
        <mxCell id="dSocFvj9sSlPv9K6rztm-68" value="Extend" style="text;html=1;align=center;verticalAlign=middle;whiteSpace=wrap;rounded=0;fontFamily=Helvetica;fontSize=11;fontColor=default;labelBackgroundColor=default;" vertex="1" parent="1">
          <mxGeometry x="215" y="850" width="60" height="30" as="geometry" />
        </mxCell>
        <mxCell id="dSocFvj9sSlPv9K6rztm-69" value="Asignar nombre con&amp;nbsp;&lt;div&gt;matricula&lt;/div&gt;" style="ellipse;whiteSpace=wrap;html=1;fontFamily=Helvetica;fontSize=11;fontColor=default;labelBackgroundColor=default;" vertex="1" parent="1">
          <mxGeometry x="415" y="660" width="120" height="50" as="geometry" />
        </mxCell>
        <mxCell id="dSocFvj9sSlPv9K6rztm-74" value="Include" style="text;html=1;align=center;verticalAlign=middle;whiteSpace=wrap;rounded=0;fontFamily=Helvetica;fontSize=11;fontColor=default;labelBackgroundColor=default;" vertex="1" parent="1">
          <mxGeometry x="355" y="660" width="60" height="30" as="geometry" />
        </mxCell>
        <mxCell id="dSocFvj9sSlPv9K6rztm-76" value="Solo camiones en ruta" style="ellipse;whiteSpace=wrap;html=1;fontFamily=Helvetica;fontSize=11;fontColor=default;labelBackgroundColor=default;" vertex="1" parent="1">
          <mxGeometry x="285" y="900" width="120" height="40" as="geometry" />
        </mxCell>
        <mxCell id="dSocFvj9sSlPv9K6rztm-77" style="edgeStyle=orthogonalEdgeStyle;rounded=0;orthogonalLoop=1;jettySize=auto;html=1;exitX=0.5;exitY=0;exitDx=0;exitDy=0;entryX=0.75;entryY=1;entryDx=0;entryDy=0;entryPerimeter=0;strokeColor=default;align=center;verticalAlign=middle;fontFamily=Helvetica;fontSize=11;fontColor=default;labelBackgroundColor=default;startArrow=none;startFill=0;endArrow=classicThin;endFill=1;dashed=1;" edge="1" parent="1" source="dSocFvj9sSlPv9K6rztm-76" target="dSocFvj9sSlPv9K6rztm-62">
          <mxGeometry relative="1" as="geometry" />
        </mxCell>
        <mxCell id="dSocFvj9sSlPv9K6rztm-79" value="Solo camiones en ruta" style="ellipse;whiteSpace=wrap;html=1;fontFamily=Helvetica;fontSize=11;fontColor=default;labelBackgroundColor=default;" vertex="1" parent="1">
          <mxGeometry x="415" y="900" width="120" height="40" as="geometry" />
        </mxCell>
        <mxCell id="dSocFvj9sSlPv9K6rztm-80" style="edgeStyle=orthogonalEdgeStyle;rounded=0;orthogonalLoop=1;jettySize=auto;html=1;exitX=0.5;exitY=0;exitDx=0;exitDy=0;entryX=0.97;entryY=0.8;entryDx=0;entryDy=0;entryPerimeter=0;strokeColor=default;align=center;verticalAlign=middle;fontFamily=Helvetica;fontSize=11;fontColor=default;labelBackgroundColor=default;startArrow=none;startFill=0;endArrow=classicThin;endFill=1;dashed=1;" edge="1" parent="1" source="dSocFvj9sSlPv9K6rztm-79" target="dSocFvj9sSlPv9K6rztm-62">
          <mxGeometry relative="1" as="geometry">
            <mxPoint x="355" y="910" as="sourcePoint" />
            <mxPoint x="355" y="860" as="targetPoint" />
          </mxGeometry>
        </mxCell>
        <mxCell id="dSocFvj9sSlPv9K6rztm-82" style="edgeStyle=orthogonalEdgeStyle;rounded=0;orthogonalLoop=1;jettySize=auto;html=1;exitX=0;exitY=0.5;exitDx=0;exitDy=0;entryX=1;entryY=0.5;entryDx=0;entryDy=0;strokeColor=default;align=center;verticalAlign=middle;fontFamily=Helvetica;fontSize=11;fontColor=default;labelBackgroundColor=default;startArrow=none;startFill=0;endArrow=classicThin;endFill=1;dashed=1;" edge="1" parent="1" source="dSocFvj9sSlPv9K6rztm-81" target="dSocFvj9sSlPv9K6rztm-79">
          <mxGeometry relative="1" as="geometry" />
        </mxCell>
        <mxCell id="dSocFvj9sSlPv9K6rztm-81" value="Elegir mas cerca&amp;nbsp;&lt;div&gt;de la ruta&lt;/div&gt;" style="ellipse;whiteSpace=wrap;html=1;fontFamily=Helvetica;fontSize=11;fontColor=default;labelBackgroundColor=default;" vertex="1" parent="1">
          <mxGeometry x="595" y="900" width="120" height="40" as="geometry" />
        </mxCell>
        <mxCell id="dSocFvj9sSlPv9K6rztm-83" value="Extend" style="text;html=1;align=center;verticalAlign=middle;whiteSpace=wrap;rounded=0;fontFamily=Helvetica;fontSize=11;fontColor=default;labelBackgroundColor=default;" vertex="1" parent="1">
          <mxGeometry x="535" y="890" width="60" height="30" as="geometry" />
        </mxCell>
        <mxCell id="dSocFvj9sSlPv9K6rztm-84" value="Extend" style="text;html=1;align=center;verticalAlign=middle;whiteSpace=wrap;rounded=0;fontFamily=Helvetica;fontSize=11;fontColor=default;labelBackgroundColor=default;" vertex="1" parent="1">
          <mxGeometry x="335" y="870" width="60" height="30" as="geometry" />
        </mxCell>
        <mxCell id="dSocFvj9sSlPv9K6rztm-85" value="Extend" style="text;html=1;align=center;verticalAlign=middle;whiteSpace=wrap;rounded=0;fontFamily=Helvetica;fontSize=11;fontColor=default;labelBackgroundColor=default;" vertex="1" parent="1">
          <mxGeometry x="395" y="850" width="60" height="30" as="geometry" />
        </mxCell>
        <mxCell id="dSocFvj9sSlPv9K6rztm-87" value="&lt;b&gt;&lt;font style=&quot;font-size: 14px;&quot;&gt;Caso de uso 3&lt;/font&gt;&lt;/b&gt;" style="text;html=1;align=center;verticalAlign=middle;whiteSpace=wrap;rounded=0;fontFamily=Helvetica;fontSize=11;fontColor=default;labelBackgroundColor=default;" vertex="1" parent="1">
          <mxGeometry x="425" y="590" width="120" height="30" as="geometry" />
        </mxCell>
        <mxCell id="dSocFvj9sSlPv9K6rztm-89" value="&lt;b&gt;&lt;font style=&quot;font-size: 14px;&quot;&gt;Caso de uso 1&lt;/font&gt;&lt;/b&gt;" style="text;html=1;align=center;verticalAlign=middle;whiteSpace=wrap;rounded=0;fontFamily=Helvetica;fontSize=11;fontColor=default;labelBackgroundColor=default;" vertex="1" parent="1">
          <mxGeometry x="430" y="60" width="120" height="30" as="geometry" />
        </mxCell>
      </root>
    </mxGraphModel>
  </diagram>
</mxfile>
